Coordinates
version=1
nRows=12
nColumns=24
inDegrees=yes

Units are S.I. units (second, meters, Newtons, ...)
Angles are in degrees.

endheader
time	pelvis_tilt	pelvis_list	pelvis_rotation	pelvis_tx	pelvis_ty	pelvis_tz	hip_flexion_r	hip_adduction_r	hip_rotation_r	knee_angle_r	ankle_angle_r	subtalar_angle_r	mtp_angle_r	hip_flexion_l	hip_adduction_l	hip_rotation_l	knee_angle_l	ankle_angle_l	subtalar_angle_l	mtp_angle_l	lumbar_extension	lumbar_bending	lumbar_rotation
      1.42900000	     -3.21149891	     -3.77719781	    -10.91034935	      0.83871728	      0.97418244	      0.33711711	    -19.19252910	      6.45154244	      8.89370920	     -9.41913416	     17.05913346	     -0.22482654	      3.87356609	     34.48064731	     -7.76180760	    -12.21338422	      0.18957796	     12.84774918	     -2.77001158	     -2.71591691	     -3.69372913	      1.63955661	      8.39936089
      1.43316667	     -3.28209606	     -3.66789951	    -11.10357305	      0.84514786	      0.97309273	      0.33709075	    -19.39193893	      6.19207279	      8.89336412	     -9.56933253	     16.93105908	     -0.01394597	      4.29658197	     34.60727194	     -7.73494849	    -12.22095229	     -0.47846956	     13.38847082	     -2.76197818	     -2.51066216	     -3.52913039	      1.51131832	      8.77598480
      1.43733333	     -3.31661879	     -3.57288697	    -11.26666337	      0.85162313	      0.97205682	      0.33702096	    -19.63109358	      5.95042480	      8.87810653	     -9.71571001	     16.70209603	      0.08632431	      4.35737979	     34.66352405	     -7.68654560	    -12.06226653	     -1.10056878	     13.85760483	     -2.96244203	     -2.46634122	     -3.43059297	      1.40742377	      8.84507091
      1.44150000	     -3.36917720	     -3.47299704	    -11.41938701	      0.85816601	      0.97099964	      0.33692845	    -19.84014329	      5.70866660	      8.83803501	     -9.88407238	     16.49406558	      0.24074988	      4.50436108	     34.73225654	     -7.62733877	    -11.90589116	     -1.73272711	     14.32068189	     -3.10620696	     -2.37712991	     -3.27662378	      1.29523789	      9.08076707
      1.44566667	     -3.42507804	     -3.35014587	    -11.59656773	      0.86477899	      0.96997722	      0.33685864	    -20.02754642	      5.43480262	      8.81859990	    -10.08235128	     16.26203008	      0.38091960	      4.61675871	     34.77615645	     -7.55336816	    -11.78312295	     -2.33724970	     14.73366501	     -3.28362355	     -2.30460322	     -3.11642943	      1.15807506	      9.24304602
      1.44983333	     -3.49073596	     -3.22158584	    -11.76514125	      0.87142643	      0.96894092	      0.33673520	    -20.17301657	      5.15148545	      8.71288225	    -10.33177378	     16.01385372	      0.64222957	      8.10584021	     34.83749293	     -7.46915732	    -11.70536493	     -2.96661073	     15.07479472	     -3.40425302	     -0.38973460	     -2.96561776	      1.03769538	      9.50501274
      1.45400000	     -3.53342974	     -3.07983803	    -11.91665538	      0.87816276	      0.96796746	      0.33661721	    -20.35906344	      4.86266878	      8.67593707	    -10.54824698	     15.70096060	      0.73182816	      8.11694607	     34.84127010	     -7.34916169	    -11.54488668	     -3.53836207	     15.38097562	     -3.60875848	     -0.36952988	     -2.79614732	      0.87612603	      9.63576386
      1.45816667	     -3.58522952	     -2.93374552	    -12.06093747	      0.88494012	      0.96700210	      0.33647622	    -20.51429640	      4.57261852	      8.60912988	    -10.80310040	     15.39882627	      0.86000231	      8.14672249	     34.84722011	     -7.21683706	    -11.37280445	     -4.10175015	     15.63494397	     -3.82482927	     -0.33733697	     -2.61223097	      0.71671431	      9.80847181
      1.46233333	     -3.66056336	     -2.77661078	    -12.18370403	      0.89175647	      0.96600638	      0.33627597	    -20.61909446	      4.27895759	      8.48172657	    -11.10577460	     15.13943263	      1.10565799	      8.26643950	     34.87844426	     -7.05626584	    -11.12589104	     -4.64678297	     15.72110133	     -4.15537354	     -0.24685121	     -2.40914221	      0.54227908	     10.14869442
      1.46650000	     -3.71297153	     -2.60408605	    -12.31587592	      0.89860435	      0.96508740	      0.33607437	    -20.71511368	      3.96071272	      8.32385051	    -11.46329686	     14.85902798	      1.34441900	      8.49415664	     34.86069463	     -6.87394954	    -10.88090954	     -5.14854289	     15.75459055	     -4.57917109	     -0.08756405	     -2.21833514	      0.36208181	     10.37032902
      1.47066667	     -3.76708148	     -2.41842953	    -12.41383286	      0.90552399	      0.96418676	      0.33582373	    -20.81709816	      3.64427904	      8.19587798	    -11.79663499	     14.50154069	      1.50191735	      8.70015848	     34.85500893	     -6.66049672	    -10.65158772	     -5.65311769	     15.74129226	     -4.88160639	      0.05989509	     -2.01856605	      0.14821188	     10.48969223
      1.47483333	     -3.81441940	     -2.22612024	    -12.53045842	      0.91244333	      0.96334043	      0.33555174	    -20.87344358	      3.30812973	      8.00438330	    -12.22894799	     14.18988142	      1.74117191	      9.14173020	     34.81817727	     -6.43422656	    -10.35487032	     -6.09897033	     15.56143152	     -5.45207776	      0.37135854	     -1.81610395	     -0.02084459	     10.69464547
